<?xml version="1.0" standalone="no"?>
<!DOCTYPE svg PUBLIC "-//W3C//DTD SVG 1.1//EN" "http://www.w3.org/Graphics/SVG/1.1/DTD/svg11.dtd" >
<svg xmlns="http://www.w3.org/2000/svg">
<metadata>
This is a custom SVG webfont generated by Font Squirrel.
Copyright   : Copyright c 2008 by Jos Buivenga All rights reserved
Designer    : Jos Buivenga
Foundry     : Jos Buivenga
Foundry URL : httpwwwjosbuivengademonnl
</metadata>
<defs>
<font id="MuseoSans900" horiz-adv-x="1302" >
<font-face units-per-em="2048" ascent="1536" descent="-512" />
<missing-glyph horiz-adv-x="468" />
<glyph unicode=" "  horiz-adv-x="468" />
<glyph unicode="&#x09;" horiz-adv-x="468" />
<glyph unicode="&#xa0;" horiz-adv-x="468" />
<glyph unicode="!" horiz-adv-x="749" d="M190 1464h369l-33 -1011h-303zM213 0v307h324v-307h-324z" />
<glyph unicode="&#x22;" horiz-adv-x="845" d="M102 1004v491h250v-491h-250zM494 1004v491h249v-491h-249z" />
<glyph unicode="#" horiz-adv-x="1431" d="M63 369l41 245h207l35 195h-203l41 246h203l72 409h274l-71 -409h221l71 409h275l-72 -409h215l-41 -246h-215l-35 -195h211l-41 -245h-211l-63 -369h-275l64 369h-221l-64 -369h-274l63 369h-207zM586 614h221l35 195h-221z" />
<glyph unicode="$" horiz-adv-x="1212" d="M80 184l188 273q18 -16 51 -42t125.5 -68t173.5 -42q63 0 108.5 27.5t45.5 89.5q0 43 -68.5 83t-166 80t-195.5 93t-167 146.5t-69 215.5q0 168 109 286t283 151v192h223v-186q111 -12 205 -52t131 -75l39 -33l-152 -293q-16 14 -46 35.5t-115 57.5t-162 36 q-63 0 -109.5 -28.5t-46.5 -86.5q0 -47 68.5 -85.5t166 -76.5t195.5 -88.5t166.5 -144.5t68.5 -219q0 -168 -109.5 -292t-299.5 -154v-187h-223v187q-76 10 -146.5 34.5t-118 52t-84 53.5t-53.5 44z" />
<glyph unicode="%" horiz-adv-x="1744" d="M59 1135q0 145 108.5 249.5t262.5 104.5t262.5 -104.5t108.5 -249.5q0 -147 -108.5 -250t-262.5 -103q-156 0 -263.5 103t-107.5 250zM141 0l1131 1464h311l-1130 -1464h-312zM317 1137q0 -45 33 -77t80 -32t80 32t33 77q0 43 -34 74.5t-79 31.5t-79 -31.5t-34 -74.5z M934 328q0 145 108.5 249.5t262 104.5t262 -104.5t108.5 -249.5q0 -147 -108.5 -250t-261.5 -103q-156 0 -263.5 103t-107.5 250zM1192 330q0 -45 32.5 -77t80 -32t80 32t32.5 77q0 43 -33.5 74.5t-78.5 31.5t-79 -31.5t-34 -74.5z" />
<glyph unicode="&#x26;" horiz-adv-x="1441" d="M80 424q0 113 64.5 210t168.5 140v4q-6 4 -18 10.5t-42 33t-52.5 59t-41 90t-18.5 123.5q0 199 140.5 297t343.5 98q47 0 100 -6t82 -13l29 -6l-82 -280q-37 8 -80 8q-74 0 -122 -39t-48 -113q0 -59 40 -100t109 -41h178v180h353v-180h182v-307h-182v-141 q0 -205 -149.5 -340.5t-409.5 -135.5q-246 0 -395.5 128t-149.5 321zM446 446q0 -59 51.5 -102t127.5 -43q98 0 152 47t54 123v121h-200q-185 -1 -185 -146z" />
<glyph unicode="'" horiz-adv-x="460" d="M102 1004v491h256v-491h-256z" />
<glyph unicode="(" horiz-adv-x="688" d="M119 711q0 434 254 825h291q-231 -387 -232 -825q0 -465 232 -906h-291q-254 402 -254 906z" />
<glyph unicode=")" horiz-adv-x="688" d="M25 -195q231 440 231 906q0 438 -231 825h290q254 -391 254 -825q0 -504 -254 -906h-290z" />
<glyph unicode="*" horiz-adv-x="946" d="M37 1034l94 293l209 -92l-23 229h312l-25 -229l211 94l96 -293l-227 -47v-4l156 -170l-250 -182l-115 198h-4l-113 -198l-249 180l153 170v4z" />
<glyph unicode="+" horiz-adv-x="1286" d="M84 455v266h420v457h278v-457h420v-266h-420v-455h-278v455h-420z" />
<glyph unicode="," horiz-adv-x="589" d="M12 -227l154 567h338l-232 -567h-260z" />
<glyph unicode="-" horiz-adv-x="917" d="M137 434v307h643v-307h-643z" />
<glyph unicode="." horiz-adv-x="573" d="M119 0v336h336v-336h-336z" />
<glyph unicode="/" horiz-adv-x="888" d="M43 -86l524 1622h295l-524 -1622h-295z" />
<glyph unicode="0" horiz-adv-x="1310" d="M104 735q0 164 29 296t90.5 237.5t171 163t261 57.5t261 -57.5t171 -163t90 -237.5t28.5 -296t-28.5 -297t-90 -239.5t-171 -165t-261 -58.5t-261 58.5t-171 165t-90.5 239.5t-29 297zM473 735q0 -432 182.5 -432t182.5 432q0 426 -182.5 426t-182.5 -426z" />
<glyph unicode="1" horiz-adv-x="1136" d="M72 1094l395 370h309v-1157h314v-307h-975v307h311v611l2 112h-4q-18 -41 -57 -78l-88 -80z" />
<glyph unicode="2" horiz-adv-x="1230" d="M90 1174q6 12 17.5 33.5t55.5 75.5t97 96t146.5 76t199.5 34q201 0 350.5 -116t149.5 -333q0 -127 -60.5 -231t-148.5 -171t-175 -121t-150.5 -106.5t-65.5 -103.5h622v-307h-1013q-16 92 -17 158q0 127 47.5 235.5t117 178t152.5 133t152.5 107.5t116.5 94t47 100 q0 72 -47 108.5t-111 36.5q-121 0 -206 -139l-11 -17z" />
<glyph unicode="3" horiz-adv-x="1202" d="M61 168l172 276q14 -14 41 -35.5t106 -58.5t155 -37q96 0 152 42t56 104q0 162 -272 162h-102l-76 174l192 231q31 37 63 72t48 49l16 16v4q-47 -10 -139 -10h-350v307h924v-223l-297 -342q162 -35 258 -151.5t96 -272.5q0 -205 -142.5 -352.5t-400.5 -147.5 q-92 0 -177 19.5t-141.5 48.5t-99.5 57.5t-61 46.5z" />
<glyph unicode="4" horiz-adv-x="1318" d="M53 354v217l565 893h439v-813h174v-297h-174v-354h-355v354h-649zM418 651h284v328l13 164h-4q-31 -90 -72 -152l-221 -336v-4z" />
<glyph unicode="5" horiz-adv-x="1196" d="M78 168l172 276q14 -14 40.5 -35.5t104.5 -58.5t152 -37q80 0 142.5 48.5t62.5 132.5t-65.5 133t-168.5 49q-113 0 -196 -49l-191 71l59 766h820v-307h-508l-8 -135l-9 -57h4q51 14 107 14q250 0 387 -136t137 -345q0 -227 -151.5 -375t-390.5 -148q-90 0 -175.5 19.5 t-141.5 48.5t-99 57.5t-64 46.5z" />
<glyph unicode="6" horiz-adv-x="1267" d="M94 676q0 152 46 295t131 260t221.5 187.5t300.5 70.5q201 0 323 -64l-96 -307q-96 43 -201 43q-236 0 -315 -241h4q27 18 88 34.5t113 16.5q217 0 348 -150.5t131 -351.5q0 -199 -136.5 -346.5t-363.5 -147.5q-242 0 -418 182.5t-176 518.5zM463 594q0 -123 71.5 -207 t153.5 -84q66 0 107 48t41 116q0 88 -55.5 151.5t-166.5 63.5q-151 0 -151 -88z" />
<glyph unicode="7" horiz-adv-x="1161" d="M70 1157v307h1050v-250l-614 -1214h-373l514 1026q51 100 94 133v4q-20 -6 -94 -6h-577z" />
<glyph unicode="8" horiz-adv-x="1275" d="M90 430q0 86 45 169t82 121t76 66q-133 115 -133 281q0 176 125 299t366 123q213 0 354.5 -113.5t141.5 -310.5q0 -150 -143 -334q172 -119 172 -309q0 -182 -143.5 -314.5t-399.5 -132.5q-254 0 -398.5 134.5t-144.5 320.5zM457 461q0 -72 51 -121t125 -49q82 0 129 39 t47 110q0 14 -4 26.5t-14.5 25t-20.5 22.5t-29.5 22.5t-32 20.5t-39 20.5t-42 19.5t-47 21.5t-45.5 20.5q-78 -82 -78 -178zM510 1059q0 -66 57.5 -108t177.5 -93q51 94 52 180q0 61 -41 98.5t-113 37.5q-66 0 -99.5 -32t-33.5 -83z" />
<glyph unicode="9" horiz-adv-x="1267" d="M80 995q0 199 136 346.5t364 147.5q242 0 418 -182.5t176 -518.5q0 -152 -46.5 -295t-131.5 -259.5t-221 -187.5t-300 -71q-201 0 -323 64l96 307q96 -43 201 -43q236 0 315 242h-4q-25 -20 -86.5 -35.5t-114.5 -15.5q-217 0 -348 150t-131 351zM432 997 q0 -88 55.5 -151.5t165.5 -63.5q152 0 152 88q0 123 -71.5 207t-153.5 84q-66 0 -107 -48t-41 -116z" />
<glyph unicode=":" horiz-adv-x="614" d="M139 0v336h336v-336h-336zM139 719v336h336v-336h-336z" />
<glyph unicode=";" horiz-adv-x="618" d="M27 -227l133 567h340l-211 -567h-262zM170 719v336h324v-336h-324z" />
<glyph unicode="&#x3c;" horiz-adv-x="1292" d="M123 479v219l1032 457v-297l-676 -268v-4l676 -267v-296z" />
<glyph unicode="=" horiz-adv-x="1323" d="M143 219v266h1037v-266h-1037zM143 690v266h1037v-266h-1037z" />
<glyph unicode="&#x3e;" horiz-adv-x="1292" d="M137 23v296l676 267v4l-676 268v297l1032 -457v-219z" />
<glyph unicode="?" horiz-adv-x="1026" d="M37 1325l18 18q12 12 53.5 41t87.5 51.5t118.5 41t150.5 18.5q188 0 332.5 -107.5t144.5 -293.5q0 -92 -36 -169t-88 -125t-103 -90t-87 -88.5t-36 -95.5v-73h-340v102q0 76 32.5 140.5t80 106.5t95.5 80t80.5 81t32.5 90q0 51 -43 86t-102 35q-43 0 -92 -22t-76 -44 l-27 -23zM260 0v307h324v-307h-324z" />
<glyph unicode="@" horiz-adv-x="1771" d="M90 489.5q0 325.5 230.5 548t574.5 222.5q319 0 464.5 -136.5t145.5 -355.5v-406h152v-243h-580q-217 0 -341 110.5t-124 262.5q0 147 122 253.5t343 106.5h101q0 61 -85 96t-192 35q-195 0 -330 -150.5t-135 -343.5q0 -207 137.5 -348t378.5 -141v-266 q-393 0 -627.5 215t-234.5 540.5zM963 499.5q0 -59.5 34.5 -98.5t100.5 -39h80v275h-76q-68 0 -103.5 -39t-35.5 -98.5z" />
<glyph unicode="A" horiz-adv-x="1355" d="M-8 0l497 1464h377l498 -1464h-369l-90 307h-456l-89 -307h-368zM532 594h289l-82 285l-59 251h-4q-33 -160 -60 -251z" />
<glyph unicode="B" horiz-adv-x="1349" d="M172 0v1464h539q225 0 361 -99t136 -284q0 -94 -45 -179t-125 -132v-4q117 -35 173.5 -128t56.5 -202q0 -223 -158 -329.5t-399 -106.5h-539zM530 307h215q74 0 115 44t41 109.5t-39 107.5t-114 42h-218v-303zM530 897h185q63 0 96 39t33 96q0 55 -34 90t-101 35h-179 v-260z" />
<glyph unicode="C" horiz-adv-x="1474" d="M72 735q0 322 219 538t549 216q102 0 195 -21.5t154.5 -52.5t109 -60.5t69.5 -51.5l21 -21l-166 -270q-18 16 -51 40.5t-129.5 66.5t-186.5 42q-199 0 -306.5 -123t-107.5 -295q0 -176 111 -308t303 -132q98 0 195.5 45t144.5 90l49 45l185 -262q-8 -10 -24.5 -26.5 t-73 -58.5t-120 -74.5t-165 -59.5t-207.5 -27q-340 0 -554 215t-214 545z" />
<glyph unicode="D" horiz-adv-x="1527" d="M172 0v1464h520q348 0 552 -193.5t204 -535.5q0 -344 -204 -539.5t-552 -195.5h-520zM530 307h148q188 0 293.5 110.5t105.5 317.5q0 205 -106.5 313.5t-292.5 108.5h-148v-850z" />
<glyph unicode="E" horiz-adv-x="1204" d="M172 0v1464h918v-307h-560v-266h447v-307h-447v-277h588v-307h-946z" />
<glyph unicode="F" horiz-adv-x="1124" d="M172 0v1464h897v-307h-539v-307h447v-307h-447v-543h-358z" />
<glyph unicode="G" horiz-adv-x="1576" d="M74 735q0 322 218 538t550 216q315 0 528 -164l35 -31l-172 -268q-16 14 -47 36.5t-124 60.5t-185 38q-217 0 -325 -117.5t-108 -295.5q0 -203 122 -324t298 -121q160 0 291 103l6 4v112h-207v305h525v-827h-299v41l2 61h-4q-16 -14 -46 -35.5t-130.5 -56.5t-208.5 -35 q-295 0 -507 207t-212 553z" />
<glyph unicode="H" horiz-adv-x="1593" d="M172 0v1464h358v-585h533v585h358v-1464h-358v573h-533v-573h-358z" />
<glyph unicode="I" horiz-adv-x="702" d="M172 0v1464h358v-1464h-358z" />
<glyph unicode="J" horiz-adv-x="1177" d="M43 451v106h358v-78q0 -82 29 -123q33 -53 107 -53q59 0 94 39t35 117v698h-394v307h752v-1013q0 -227 -145.5 -351.5t-346.5 -124.5q-199 0 -344 125.5t-145 350.5z" />
<glyph unicode="K" horiz-adv-x="1417" d="M172 0v1464h358v-565h148l303 565h385l-395 -700v-4l418 -760h-402l-309 594h-148v-594h-358z" />
<glyph unicode="L" horiz-adv-x="1153" d="M172 0v1464h358v-1157h598v-307h-956z" />
<glyph unicode="M" horiz-adv-x="1849" d="M127 0l121 1464h389l213 -618l74 -242h4q41 147 73 242l213 618h390l118 -1464h-358l-45 659q-4 49 -4 110.5t2 98.5l2 37h-4q-49 -154 -82 -246l-154 -423h-307l-154 423l-81 246h-5q4 -68 4.5 -129t-4.5 -117l-45 -659h-360z" />
<glyph unicode="N" horiz-adv-x="1581" d="M172 0v1464h363l405 -684q25 -43 55.5 -105.5t48.5 -103.5l19 -41h4q-16 158 -16 250v684h358v-1464h-360l-408 682q-25 43 -55.5 105.5t-48.5 103.5l-19 41h-4q16 -158 16 -250v-682h-358z" />
<glyph unicode="O" horiz-adv-x="1675" d="M72 741q0 317 218 532.5t547.5 215.5t548 -215t218.5 -533q0 -326 -218.5 -546t-548 -220t-547.5 220t-218 546zM442 741q0 -186 115 -312t281 -126t280.5 126t114.5 312q0 178 -114.5 299t-280.5 121t-281 -121t-115 -299z" />
<glyph unicode="P" horiz-adv-x="1298" d="M172 0v1464h608q213 0 345 -141t132 -362q0 -223 -132 -365.5t-345 -142.5h-250v-453h-358zM530 760h177q90 0 138 55t48 145.5t-47 143.5t-133 53h-183v-397z" />
<glyph unicode="Q" horiz-adv-x="1695" d="M72 741q0 317 218 532.5t547.5 215.5t548 -215t218.5 -533q0 -227 -146 -434l154 -125l-203 -227l-149 141q-184 -121 -422 -121q-330 0 -548 220t-218 546zM442 741q0 -186 115 -312t281 -126q94 0 159 33l-149 131l201 227l145 -141q39 90 39 188q0 178 -114.5 299 t-280.5 121t-281 -121t-115 -299z" />
<glyph unicode="R" horiz-adv-x="1402" d="M172 0v1464h510q195 0 285 -34q127 -49 198.5 -159t71.5 -267q0 -123 -57.5 -235t-161.5 -165v-4q20 -27 55 -88l285 -512h-400l-260 494h-168v-494h-358zM530 801h156q88 0 137 47t49 133q0 90 -47 133t-174 43h-121v-356z" />
<glyph unicode="S" horiz-adv-x="1187" d="M63 184l189 273q18 -16 51 -42t125 -68t174 -42q63 0 108.5 27.5t45.5 89.5q0 39 -49.5 74.5t-122 62.5t-158.5 69t-158.5 90t-122 132t-49.5 190q0 199 148.5 324t369.5 125q139 0 257 -42t165 -83l49 -41l-151 -293q-16 14 -46 35.5t-115 57.5t-163 36 q-63 0 -109 -28.5t-46 -86.5q0 -49 67.5 -87.5t164.5 -75.5t194.5 -86.5t165 -142.5t67.5 -222q0 -190 -139 -322.5t-377 -132.5q-96 0 -186 21.5t-150.5 52.5t-108 61.5t-67.5 53.5z" />
<glyph unicode="T" horiz-adv-x="1263" d="M8 1157v307h1247v-307h-444v-1157h-358v1157h-445z" />
<glyph unicode="U" horiz-adv-x="1527" d="M152 539v925h358v-925q0 -113 68.5 -174.5t185.5 -61.5t185.5 61.5t68.5 174.5v925h358v-925q0 -250 -168 -407t-442 -157q-276 0 -445 157t-169 407z" />
<glyph unicode="V" horiz-adv-x="1382" d="M-12 1464h389l258 -833q29 -92 55 -236h4q27 143 56 236l262 833h383l-516 -1464h-373z" />
<glyph unicode="W" horiz-adv-x="2043" d="M43 1464h377l184 -915q18 -90 19 -154h4q2 63 24 154l226 915h288l219 -915q10 -41 16.5 -79t8.5 -56v-19h4q0 63 19 154l200 915h371l-371 -1464h-399l-184 739l-29 172h-4q-6 -78 -29 -172l-184 -739h-404z" />
<glyph unicode="X" horiz-adv-x="1382" d="M31 1464h407l160 -301l90 -188h4q39 94 90 188l162 301h408l-449 -737l447 -727h-400l-168 307l-90 182h-4q-39 -90 -90 -182l-168 -307h-397l444 727z" />
<glyph unicode="Y" horiz-adv-x="1308" d="M-8 1464h407l166 -352l88 -211h4q41 111 88 211l164 352h408l-483 -864v-600h-359v600z" />
<glyph unicode="Z" horiz-adv-x="1306" d="M78 0v225l565 801q29 41 56.5 74t41.5 47l15 12v4q-47 -6 -113 -6h-539v307h1106v-221l-567 -805q-29 -41 -56.5 -73.5t-41.5 -45.5l-15 -14v-4q47 6 113 6h578v-307h-1143z" />
<glyph unicode="[" horiz-adv-x="757" d="M174 -195v1731h504v-246h-209v-1239h209v-246h-504z" />
<glyph unicode="\" horiz-adv-x="888" d="M27 1536h295l524 -1622h-295z" />
<glyph unicode="]" horiz-adv-x="757" d="M80 51h209v1239h-209v246h504v-1731h-504v246z" />
<glyph unicode="^" horiz-adv-x="1290" d="M119 494l416 970h219l415 -970h-297l-229 614l-227 -614h-297z" />
<glyph unicode="_" horiz-adv-x="1273" d="M27 0h1220v-266h-1220v266z" />
<glyph unicode="`" horiz-adv-x="991" d="M238 1866h350l166 -307h-275z" />
<glyph unicode="a" horiz-adv-x="1146" d="M51 315q0 106 69.5 181t179.5 107t196 43t168 11h14v19q0 117 -156 117q-59 0 -129.5 -26t-113.5 -50l-41 -25l-123 250q20 16 58 39t153.5 60.5t230.5 37.5q223 0 349 -114.5t126 -315.5v-649h-323v63l4 66h-4q-4 -6 -10.5 -16.5t-32 -37t-56 -47t-85 -37t-115.5 -16.5 q-152 0 -255.5 93t-103.5 247zM408 334q0 -39 25.5 -63.5t74.5 -24.5q68 0 121 59.5t53 126.5v23h-33q-96 0 -168.5 -30t-72.5 -91z" />
<glyph unicode="b" horiz-adv-x="1304" d="M131 0v1464h354v-407l-4 -90h4q10 12 32 30.5t96.5 50t156.5 31.5q215 0 345 -152.5t130 -400t-139 -399.5t-352 -152q-176 0 -281 111l-8 8h-4q2 -27 2 -59v-35h-332zM475 520q0 -102 54.5 -177t152.5 -75q88 0 147.5 67.5t59.5 184.5t-57.5 188.5t-149.5 71.5 q-88 0 -147.5 -65.5t-59.5 -194.5z" />
<glyph unicode="c" horiz-adv-x="1128" d="M53 528q0 225 159 388t429 163q80 0 152.5 -16t120 -40t82 -47.5t48.5 -39.5l17 -16l-150 -238q-12 12 -32.5 28.5t-85 45t-129.5 28.5q-119 0 -185.5 -74.5t-66.5 -177.5q0 -104 69.5 -183t194.5 -79q66 0 137.5 32t112.5 63l39 32l129 -247l-19 -19q-12 -12 -55 -42 t-92 -53.5t-127 -42t-160 -18.5q-270 0 -429 162t-159 391z" />
<glyph unicode="d" horiz-adv-x="1304" d="M59 528.5q0 247.5 134.5 399t347.5 151.5q94 0 163.5 -21.5t90.5 -41.5l22 -21h4q-2 20 -2 47v422h355v-1464h-332v70l2 59h-4q-4 -6 -11.5 -16.5t-34 -37t-58 -47t-86 -37t-115.5 -16.5q-215 0 -345.5 153t-130.5 400.5zM416 528.5q0 -116.5 57 -188.5t150 -72 q88 0 147 65.5t59 194.5q0 102 -54 177t-152 75q-88 0 -147.5 -67.5t-59.5 -184z" />
<glyph unicode="e" horiz-adv-x="1153" d="M55 528q0 238 149.5 394.5t399.5 156.5q227 0 357.5 -142t130.5 -368l-9 -110h-665q18 -92 86.5 -140.5t159.5 -48.5q68 0 140.5 27t110.5 53l39 27l131 -248q-18 -16 -54 -42t-153.5 -69t-242.5 -43q-268 0 -424 164t-156 389zM426 662h309q0 61 -39 106t-100 45 q-133 1 -170 -151z" />
<glyph unicode="f" horiz-adv-x="786" d="M68 760v276h129v43q0 98 34.5 173t85 116t121 65.5t127 32t115.5 7.5l106 -7v-299q-25 4 -57 4q-178 0 -178 -102v-33h194v-276h-194v-760h-354v760h-129z" />
<glyph unicode="g" horiz-adv-x="1288" d="M61 561q0 217 123 367.5t351 150.5q176 0 280 -96l6 -6h6q-2 12 -2 24v54h332v-959q0 -139 -51 -243.5t-139 -165t-189.5 -89t-216.5 -28.5q-219 0 -399 94l100 268q131 -68 297 -67q244 0 244 203v34l2 39h-4q-92 -111 -264 -110q-225 0 -350.5 155.5t-125.5 374.5z M418 573q0 -106 51 -176.5t152 -70.5q82 0 136 52t54 179q0 227 -205 227q-90 0 -139 -58.5t-49 -152.5z" />
<glyph unicode="h" d="M131 0v1464h354v-463l-4 -90h4q45 78 131 123t191 45q379 0 379 -395v-684h-355v618q0 139 -116 140q-160 0 -211 -156q-18 -53 -19 -135v-467h-354z" />
<glyph unicode="i" horiz-adv-x="616" d="M131 0v1055h354v-1055h-354zM135 1188v276h346v-276h-346z" />
<glyph unicode="j" horiz-adv-x="616" d="M-104 -125q18 -2 45 -2q190 0 190 135v1047h354v-1082q0 -100 -36.5 -177t-89 -117.5t-125 -65.5t-129 -32t-115.5 -7l-94 6v295zM135 1188v276h346v-276h-346z" />
<glyph unicode="k" horiz-adv-x="1226" d="M131 0v1464h354v-757h101l209 348h385l-310 -480v-4l353 -571h-404l-223 410h-111v-410h-354z" />
<glyph unicode="l" horiz-adv-x="661" d="M117 389v1075h354v-1028q0 -78 19.5 -106.5t78.5 -28.5l43 2v-307q-49 -6 -106 -6q-82 0 -142.5 13t-121 52t-93 123t-32.5 211z" />
<glyph unicode="m" horiz-adv-x="1880" d="M131 0v1055h340v-92l-4 -66h4q121 182 313 182q211 0 295 -178h4q45 74 136.5 126t201.5 52q156 0 249 -94t93 -301v-684h-354v625q0 133 -82 133q-156 0 -194 -199q-8 -37 -9 -123v-436h-354v625q0 133 -82 133q-152 0 -192 -191q-10 -49 -11 -131v-436h-354z" />
<glyph unicode="n" d="M131 0v1055h340v-92l-4 -66h4q109 182 336 182q379 0 379 -395v-684h-355v618q0 139 -116 140q-158 0 -209 -152q-20 -59 -21 -139v-467h-354z" />
<glyph unicode="o" d="M53 524.5q0 243.5 172 399t424 155.5q254 0 427 -154.5t173 -400.5q0 -244 -172 -396.5t-426 -152.5t-426 153t-172 396.5zM412 524q0 -115 69.5 -184.5t170 -69.5t170 70t69.5 184q0 117 -69.5 188.5t-170 71.5t-170 -71.5t-69.5 -188.5z" />
<glyph unicode="p" horiz-adv-x="1304" d="M131 -410v1465h320v-54l-5 -67h5q4 6 12 15t36.5 35t61.5 45.5t89.5 34.5t119.5 15q215 0 345 -152.5t130 -400t-139 -399.5t-352 -152q-160 0 -265 97l-4 4h-4q4 -37 4 -90v-396h-354zM475 520q0 -102 54.5 -177t152.5 -75q88 0 147.5 67.5t59.5 184.5t-57.5 188.5 t-149.5 71.5q-88 0 -147.5 -65.5t-59.5 -194.5z" />
<glyph unicode="q" horiz-adv-x="1304" d="M59 528.5q0 247.5 134.5 399t347.5 151.5q59 0 112.5 -11t86 -27.5t57 -34t34.5 -27.5l11 -12h4q-4 23 -4 57v31h332v-1465h-355v414l4 90h-4q-10 -12 -30.5 -32.5t-94 -53.5t-159.5 -33q-215 0 -345.5 153t-130.5 400.5zM416 528.5q0 -116.5 57 -188.5t150 -72 q88 0 147 65.5t59 194.5q0 102 -54 177t-152 75q-88 0 -147.5 -67.5t-59.5 -184z" />
<glyph unicode="r" horiz-adv-x="880" d="M131 0v1055h340v-178l-4 -66h4q35 111 128 186.5t208 75.5l41 -4v-348q-29 6 -72 6q-213 0 -272 -184q-18 -59 -19 -144v-399h-354z" />
<glyph unicode="s" horiz-adv-x="964" d="M49 131l152 238q12 -12 35.5 -29.5t94 -47.5t138.5 -30q104 0 104 49q0 25 -51 48.5t-122.5 51t-144.5 66.5t-124 112t-51 169q0 145 124 233t310 88q221 0 360 -110l11 -11l-121 -251q-12 10 -32.5 24t-86 38t-131.5 24q-104 0 -104 -52q0 -20 51 -41.5t122.5 -48 t144.5 -64.5t124 -111t51 -167q0 -141 -117.5 -237.5t-314.5 -96.5q-117 0 -222.5 39t-152.5 78z" />
<glyph unicode="t" horiz-adv-x="849" d="M49 760v276h146v303h344v-303h221v-276h-221v-324q0 -135 188 -135l47 2v-307q-39 -6 -96 -6q-49 0 -95 5t-106.5 19.5t-109 43t-91.5 70.5t-67.5 109.5t-24.5 151.5v371h-135z" />
<glyph unicode="u" horiz-adv-x="1292" d="M117 371v684h354v-619q0 -139 113 -139q109 0 166 83t57 208v467h354v-1055h-340v92l4 66h-4q-43 -84 -133 -133.5t-196 -49.5q-172 0 -273.5 93.5t-101.5 302.5z" />
<glyph unicode="v" horiz-adv-x="1150" d="M-4 1055h373l163 -561q20 -68 39 -183h4q18 113 39 183l162 561h375l-358 -1055h-433z" />
<glyph unicode="w" horiz-adv-x="1720" d="M27 1055h372l131 -623q12 -57 13 -110h4q4 53 18 110l146 623h303l145 -623l17 -110h4q2 53 14 110l131 623h369l-295 -1055h-395l-119 487l-21 113h-4q-6 -55 -20 -113l-119 -487h-399z" />
<glyph unicode="x" horiz-adv-x="1142" d="M23 1055h399l115 -236l32 -69h4q20 43 33 69l115 236h399l-338 -533l332 -522h-389l-127 238l-25 53h-4q-14 -35 -24 -53l-125 -238h-389l331 522z" />
<glyph unicode="y" horiz-adv-x="1118" d="M-35 1055h402l155 -486l39 -163h4q20 100 35 157l133 492h387l-432 -1168q-61 -164 -181 -240.5t-259 -76.5q-137 0 -246 74l113 260q57 -39 108 -39q127 0 170 106l21 49z" />
<glyph unicode="z" horiz-adv-x="1112" d="M70 0v176l387 486q25 29 47 53t33 35l12 8v4q-27 -4 -92 -4h-371v297h942v-178l-385 -486q-23 -29 -46.5 -52.5t-35.5 -33.5l-12 -10v-4q27 6 94 6h395v-297h-968z" />
<glyph unicode="{" horiz-adv-x="829" d="M80 524v307q6 0 18.5 1.5t42 12.5t53 29.5t42 60.5t18.5 99v180q0 102 42 174t110.5 104t129 43t126.5 11l88 -4v-254q-23 4 -52 4q-150 0 -149 -110v-240q0 -59 -17.5 -107.5t-43 -75t-51 -46t-44.5 -25.5l-16 -6v-4l18 -6q12 -4 42 -23.5t52.5 -45t41 -75t18.5 -108.5 v-260q0 -111 149 -111l52 4v-254q-37 -4 -88 -4q-66 0 -126.5 11.5t-129 43t-110.5 103.5t-42 174v201q0 55 -18.5 95t-43 58.5t-50 29.5t-44.5 13h-18z" />
<glyph unicode="|" horiz-adv-x="634" d="M170 -338v1980h295v-1980h-295z" />
<glyph unicode="}" horiz-adv-x="829" d="M80 53q23 -4 51 -4q150 0 150 111v260q0 59 17 108.5t43 76t51.5 44t41.5 23.5l19 6v4q-6 2 -18.5 7t-42.5 24.5t-52.5 46t-40.5 75t-18 107.5v240q0 111 -150 110l-51 -4v254q37 4 88 4q66 0 126 -11t129 -43t110.5 -103.5t41.5 -174.5v-180q0 -162 134 -196l41 -7v-307 q-6 0 -18.5 -1t-42.5 -12t-53.5 -29.5t-42 -58.5t-18.5 -95v-201q0 -102 -41.5 -174t-110.5 -103.5t-129.5 -43t-125.5 -11.5l-88 4v254z" />
<glyph unicode="~" horiz-adv-x="1280" d="M96 391q0 416 357 416q63 0 119.5 -25.5t88 -56.5t70.5 -56.5t74 -25.5q51 0 82 40t31 116h272q0 -416 -354 -416q-63 0 -120 25.5t-88.5 56.5t-71.5 56.5t-75 25.5q-49 0 -79.5 -40t-30.5 -116h-275z" />
<glyph unicode="&#xa1;" horiz-adv-x="655" d="M143 -410l33 1010h303l33 -1010h-369zM166 745v308h323v-308h-323z" />
<glyph unicode="&#xa2;" horiz-adv-x="1204" d="M76 733q0 213 126 375t310 205v174h225v-174q139 -31 244.5 -124t151.5 -228l-316 -123q-23 66 -71 109.5t-113 43.5q-76 0 -138.5 -73.5t-62.5 -184.5q0 -123 58.5 -190.5t142.5 -67.5q66 0 115 44t69 110l316 -123q-43 -123 -146.5 -227.5t-249.5 -124.5v-179h-225v179 q-186 43 -311 203.5t-125 375.5z" />
<glyph unicode="&#xa3;" horiz-adv-x="1245" d="M96 0v307h113v305h-88v230h88v205q0 195 141.5 318.5t358.5 123.5q211 0 381 -150l20 -20l-199 -242q-94 90 -192 90q-59 0 -101.5 -35.5t-42.5 -95.5v-194h338v-230h-338v-305h594v-307h-1073z" />
<glyph unicode="&#xa5;" horiz-adv-x="1318" d="M49 1464h412l108 -293q49 -135 88 -272h5q39 137 88 272l108 293h412l-283 -571h191v-197h-287l-49 -100v-57h336v-197h-336v-342h-367v342h-334v197h334v57l-49 100h-285v197h189z" />
<glyph unicode="&#xa7;" horiz-adv-x="1075" d="M61 31l142 235q14 -12 38.5 -30.5t97.5 -50t144 -31.5q201 0 201 192q0 66 -27 158l-139 491h268l152 -559q20 -76 20 -153q0 -182 -121.5 -296t-351.5 -114q-238 0 -403 139zM109 1079q0 182 121.5 296t351.5 114q238 0 403 -139l21 -19l-152 -221q-12 10 -34.5 26.5 t-93.5 43t-140 26.5q-201 0 -201 -170q0 -61 21 -137l147 -532h-268l-156 559q-20 75 -20 153z" />
<glyph unicode="&#xa8;" horiz-adv-x="993" d="M154 1579v287h258v-287h-258zM582 1579v287h258v-287h-258z" />
<glyph unicode="&#xa9;" horiz-adv-x="1638" d="M80 733.5q0 313.5 215 533.5t520 220q309 0 526.5 -220t217.5 -533.5t-217.5 -536t-526.5 -222.5q-303 0 -519 222.5t-216 536zM311 733q0 -229 145.5 -388t358.5 -159q217 0 365.5 159t148.5 388q0 227 -148.5 385t-365.5 158q-213 0 -358.5 -158t-145.5 -385zM467 727 q0 160 104.5 271.5t247.5 111.5q211 0 307 -180l25 -56l-205 -79l-11 27.5t-37 45t-71 27.5q-47 0 -83.5 -47t-36.5 -121q0 -80 33.5 -124t86.5 -44q41 0 71 25.5t40 50.5l8 24l205 -79q-2 -10 -8 -25.5t-32 -56.5t-59.5 -72t-96 -56.5t-136.5 -25.5q-143 0 -247.5 111.5 t-104.5 271.5z" />
<glyph unicode="&#xaa;" horiz-adv-x="845" d="M104 993q0 223 371 224h10v16q0 74 -96 74q-78 0 -164 -56l-78 154q12 8 34 21.5t94.5 36t154.5 22.5q143 0 220 -74t77 -203v-409h-221v80h-4q-6 -10 -17.5 -25.5t-58.5 -42.5t-107 -27q-84 0 -149.5 58.5t-65.5 150.5zM111 549v174h624v-174h-624zM344 1008 q0 -41 47 -41q37 0 64.5 28.5t27.5 63.5v10h-20q-119 0 -119 -61z" />
<glyph unicode="&#xab;" horiz-adv-x="1316" d="M57 578l336 421h324l-336 -421l336 -420h-324zM590 578l336 421h323l-336 -421l336 -420h-323z" />
<glyph unicode="&#xac;" horiz-adv-x="1232" d="M74 690v266h1036v-686h-276v420h-760z" />
<glyph unicode="&#xad;" horiz-adv-x="880" d="M119 434v307h643v-307h-643z" />
<glyph unicode="&#xae;" horiz-adv-x="1638" d="M80 733.5q0 313.5 215 533.5t520 220q309 0 526.5 -220t217.5 -533.5t-217.5 -536t-526.5 -222.5q-303 0 -519 222.5t-216 536zM311 733q0 -229 145.5 -388t358.5 -159q217 0 365.5 159t148.5 388q0 227 -148.5 385t-365.5 158q-213 0 -358.5 -158t-145.5 -385zM549 383 v711h334q115 0 182.5 -63.5t67.5 -172.5q0 -76 -40 -124t-79 -58v-4q8 -6 26 -41l129 -248h-241l-101 242h-57v-242h-221zM770 772h55q82 0 82 86q0 84 -78 84h-59v-170z" />
<glyph unicode="&#xaf;" horiz-adv-x="993" d="M215 1602v229h563v-229h-563z" />
<glyph unicode="&#xb0;" horiz-adv-x="856" d="M57 1141q0 145 108.5 249.5t262.5 104.5t262.5 -104.5t108.5 -249.5q0 -147 -108.5 -250t-262.5 -103q-156 0 -263.5 103t-107.5 250zM315 1143q0 -45 33 -77t80 -32t80 32t33 77q0 43 -34 74.5t-79 31.5t-79 -31.5t-34 -74.5z" />
<glyph unicode="&#xb1;" horiz-adv-x="1282" d="M82 455v266h420v457h278v-457h420v-266h-420v-455h-278v455h-420zM102 -143h1078v-267h-1078v267z" />
<glyph unicode="&#xb2;" horiz-adv-x="831" d="M80 967q0 102 42 180t101.5 122t119.5 77.5t102 67.5t42 71q0 33 -26.5 51t-65.5 18q-78 -2 -145 -92l-170 146q4 8 12 20t39 43t65.5 55.5t93 44t124.5 19.5q131 0 232.5 -75t101.5 -218q0 -96 -56.5 -171t-125 -108.5t-130 -68.5t-67.5 -62h391v-221h-670 q-10 58 -10 101z" />
<glyph unicode="&#xb3;" horiz-adv-x="831" d="M63 985l125 184q8 -10 22.5 -24.5t64 -39t100.5 -24.5t80.5 24.5t29.5 61.5t-35.5 55.5t-91.5 18.5h-75l-50 117l127 141q14 18 50 47v4q-43 -4 -70 -4h-225v223h602v-161l-170 -187q199 -49 198 -258q0 -127 -94 -222t-260 -95q-195 0 -315 125z" />
<glyph unicode="&#xb4;" horiz-adv-x="991" d="M238 1559l165 307h351l-242 -307h-274z" />
<glyph unicode="&#xb5;" horiz-adv-x="1331" d="M143 -410v1465h355v-619q0 -139 112 -139q109 0 166.5 83t57.5 208v467h354v-1055h-340v102l4 56h-6q-4 -8 -11.5 -20.5t-35 -43.5t-61 -55.5t-93 -44t-127.5 -19.5l-86 9h-4q16 -98 16 -181v-213h-301z" />
<glyph unicode="&#x3bc;" horiz-adv-x="1331" d="M143 -410v1465h355v-619q0 -139 112 -139q109 0 166.5 83t57.5 208v467h354v-1055h-340v102l4 56h-6q-4 -8 -11.5 -20.5t-35 -43.5t-61 -55.5t-93 -44t-127.5 -19.5l-86 9h-4q16 -98 16 -181v-213h-301z" />
<glyph unicode="&#xb6;" horiz-adv-x="1339" d="M59 981q0 205 139.5 344t338.5 139h731v-307h-486v-1259h-245v596q-199 0 -338.5 141t-139.5 346zM909 -102v1157h246v-1157h-246z" />
<glyph unicode="&#xb7;" horiz-adv-x="598" d="M137 436v336h324v-336h-324z" />
<glyph unicode="&#xb8;" horiz-adv-x="991" d="M303 -233q47 -20 92 -21q78 0 78 47q0 43 -84 43l-53 -4l72 227l147 -34v-15l-20 -84q154 -16 153 -164q0 -102 -69.5 -147t-169.5 -45q-35 0 -71 4t-54 8l-21 6v179z" />
<glyph unicode="&#xb9;" horiz-adv-x="831" d="M92 1532l254 237h221v-682h185v-221h-625v221h182v293l6 66h-4q-10 -20 -22 -31l-49 -45z" />
<glyph unicode="&#xba;" horiz-adv-x="931" d="M92 1136.5q0 153.5 107.5 251t263.5 97.5q160 0 268.5 -97.5t108.5 -251t-108.5 -251t-266.5 -97.5t-265.5 97.5t-107.5 251zM119 549v174h692v-174h-692zM336 1137q0 -63 37 -100.5t92 -37.5t92 37t37 101q0 61 -38 100t-91 39t-91 -39t-38 -100z" />
<glyph unicode="&#xbb;" horiz-adv-x="1316" d="M68 158l335 420l-335 421h323l336 -421l-336 -420h-323zM600 158l336 420l-336 421h324l336 -421l-336 -420h-324z" />
<glyph unicode="&#xbc;" horiz-adv-x="2062" d="M80 1227l254 237h221v-682h184v-221h-624v221h182v293l6 66h-4q-10 -20 -23 -31l-49 -45zM569 0l688 1464h244l-688 -1464h-244zM1245 178v172l350 553h308v-506h108v-219h-108v-178h-254v178h-404zM1489 397h160v185l8 102h-4q-18 -55 -43 -94l-121 -189v-4z" />
<glyph unicode="&#xbd;" horiz-adv-x="2084" d="M68 1227l254 237h221v-682h184v-221h-625v221h183v293l6 66h-4q-10 -20 -23 -31l-49 -45zM565 0l688 1464h244l-688 -1464h-244zM1298 100q0 102 42 180t102.5 122t120 78t101.5 68t42 70q0 33 -26.5 51.5t-65.5 18.5q-78 -2 -146 -92l-170 145q4 8 12.5 20.5t39 43.5 t65.5 55.5t93.5 44t123.5 19.5q131 0 232.5 -75t101.5 -218q0 -96 -56.5 -171t-125 -109t-130 -68.5t-67.5 -61.5h391v-221h-669q-11 57 -11 100z" />
<glyph unicode="&#xbe;" horiz-adv-x="2076" d="M53 680l125 184q8 -10 22.5 -24.5t63.5 -39t100.5 -24.5t81 24.5t29.5 61.5t-36 55.5t-91 18.5h-76l-49 117l127 141q14 18 49 47v4q-43 -4 -69 -4h-226v223h603v-161l-170 -187q199 -49 198 -258q0 -127 -94 -222t-260 -95q-195 0 -315 125zM559 0l688 1464h244 l-688 -1464h-244zM1235 178v172l350 553h307v-506h109v-219h-109v-178h-254v178h-403zM1479 397h159v185l9 102h-5q-18 -55 -43 -94l-120 -189v-4z" />
<glyph unicode="&#xbf;" horiz-adv-x="958" d="M27 -29q0 92 35.5 169t87 125t103.5 90t88 88t36 96v63h340v-92q0 -76 -33 -140.5t-80 -106.5t-95 -80t-81 -81t-33 -90q0 -51 43 -86t103 -35q43 0 92 21.5t76 44.5l26 23l197 -240l-19 -19q-12 -12 -53 -40.5t-87 -51t-118.5 -41t-150.5 -18.5q-188 0 -332.5 107.5 t-144.5 293.5zM385 748v307h324v-307h-324z" />
<glyph unicode="&#xc0;" horiz-adv-x="1355" d="M-8 0l497 1464h377l498 -1464h-369l-90 307h-456l-89 -307h-368zM309 1866h350l166 -307h-274zM532 594h289l-82 285l-59 251h-4q-33 -160 -60 -251z" />
<glyph unicode="&#xc1;" horiz-adv-x="1355" d="M-8 0l497 1464h377l498 -1464h-369l-90 307h-456l-89 -307h-368zM530 1559l166 307h351l-242 -307h-275zM532 594h289l-82 285l-59 251h-4q-33 -160 -60 -251z" />
<glyph unicode="&#xc2;" horiz-adv-x="1355" d="M-8 0l497 1464h377l498 -1464h-369l-90 307h-456l-89 -307h-368zM303 1559l203 307h344l203 -307h-277l-96 167h-4l-96 -167h-277zM532 594h289l-82 285l-59 251h-4q-33 -160 -60 -251z" />
<glyph unicode="&#xc3;" horiz-adv-x="1355" d="M-8 0l497 1464h377l498 -1464h-369l-90 307h-456l-89 -307h-368zM266 1559q0 313 262 313q59 0 106.5 -31t84.5 -61.5t67 -30.5q76 0 76 117h230q0 -313 -263 -314q-59 0 -106 31t-84 61.5t-68 30.5q-76 0 -75 -116h-230zM532 594h289l-82 285l-59 251h-4 q-33 -160 -60 -251z" />
<glyph unicode="&#xc4;" horiz-adv-x="1355" d="M-8 0l497 1464h377l498 -1464h-369l-90 307h-456l-89 -307h-368zM336 1579v287h258v-287h-258zM532 594h289l-82 285l-59 251h-4q-33 -160 -60 -251zM764 1579v287h258v-287h-258z" />
<glyph unicode="&#xc5;" horiz-adv-x="1355" d="M-8 0l497 1464h377l498 -1464h-369l-90 307h-456l-89 -307h-368zM455 1704q0 84 66.5 130t156.5 46t157.5 -46t67.5 -130t-67.5 -129t-157.5 -45t-156.5 45t-66.5 129zM532 594h289l-82 285l-59 251h-4q-33 -160 -60 -251zM608 1704q0 -33 18.5 -52.5t51.5 -19.5 t52.5 19.5t19.5 52.5t-19.5 53.5t-52.5 20.5q-31 0 -50.5 -20.5t-19.5 -53.5z" />
<glyph unicode="&#xc6;" horiz-adv-x="1955" d="M-20 0l612 1464h1249v-307h-559v-266h447v-307h-447v-277h586v-307h-944v590h-344l-228 -590h-372zM690 877h234v280h-125z" />
<glyph unicode="&#xc7;" horiz-adv-x="1478" d="M76 735q0 322 219 538t549 216q102 0 195.5 -21.5t154.5 -52.5t108.5 -60.5t69.5 -51.5l21 -21l-166 -270q-18 16 -51 40.5t-129.5 66.5t-186.5 42q-199 0 -306.5 -123t-107.5 -295q0 -176 111 -308t303 -132q98 0 195.5 45t144.5 90l49 45l185 -262q-8 -8 -22.5 -23.5 t-67 -55.5t-109.5 -71.5t-149.5 -59t-190.5 -34.5l-12 -51q154 -16 153 -164q0 -102 -69.5 -147t-169.5 -45q-35 0 -71 4t-54 8l-21 6v179q47 -20 92 -21q78 0 78 47q0 43 -84 43l-53 -4l47 150q-297 37 -476 245.5t-179 507.5z" />
<glyph unicode="&#xc8;" horiz-adv-x="1204" d="M172 0v1464h918v-307h-560v-266h447v-307h-447v-277h588v-307h-946zM279 1866h350l166 -307h-275z" />
<glyph unicode="&#xc9;" horiz-adv-x="1204" d="M172 0v1464h918v-307h-560v-266h447v-307h-447v-277h588v-307h-946zM500 1559l166 307h350l-242 -307h-274z" />
<glyph unicode="&#xca;" horiz-adv-x="1204" d="M172 0v1464h918v-307h-560v-266h447v-307h-447v-277h588v-307h-946zM272 1559l203 307h344l203 -307h-277l-96 167h-4l-96 -167h-277z" />
<glyph unicode="&#xcb;" horiz-adv-x="1204" d="M172 0v1464h918v-307h-560v-266h447v-307h-447v-277h588v-307h-946zM305 1579v287h258v-287h-258zM733 1579v287h258v-287h-258z" />
<glyph unicode="&#xcc;" horiz-adv-x="702" d="M-16 1866h350l166 -307h-275zM172 0v1464h358v-1464h-358z" />
<glyph unicode="&#xcd;" horiz-adv-x="702" d="M172 0v1464h358v-1464h-358zM205 1559l166 307h350l-242 -307h-274z" />
<glyph unicode="&#xce;" horiz-adv-x="702" d="M-23 1559l203 307h344l203 -307h-276l-97 167h-4l-96 -167h-277zM172 0v1464h358v-1464h-358z" />
<glyph unicode="&#xcf;" horiz-adv-x="702" d="M10 1579v287h258v-287h-258zM172 0v1464h358v-1464h-358zM438 1579v287h258v-287h-258z" />
<glyph unicode="&#xd0;" horiz-adv-x="1570" d="M98 582v286h117v596h520q348 0 552 -193.5t204 -535.5q0 -344 -204 -539.5t-552 -195.5h-520v582h-117zM573 307h148q188 0 293.5 110.5t105.5 317.5q0 205 -106.5 313.5t-292.5 108.5h-148v-289h213v-286h-213v-275z" />
<glyph unicode="&#xd1;" horiz-adv-x="1581" d="M172 0v1464h363l405 -684q25 -43 55.5 -105.5t48.5 -103.5l19 -41h4q-16 158 -16 250v684h358v-1464h-360l-408 682q-25 43 -55.5 105.5t-48.5 103.5l-19 41h-4q16 -158 16 -250v-682h-358zM379 1559q0 313 262 313q59 0 106.5 -31t84 -61.5t67.5 -30.5q76 0 76 117h229 q0 -313 -262 -314q-59 0 -106.5 31t-84 61.5t-67.5 30.5q-76 0 -76 -116h-229z" />
<glyph unicode="&#xd2;" horiz-adv-x="1675" d="M72 741q0 317 218 532.5t547.5 215.5t548 -215t218.5 -533q0 -326 -218.5 -546t-548 -220t-547.5 220t-218 546zM442 741q0 -186 115 -312t281 -126t280.5 126t114.5 312q0 178 -114.5 299t-280.5 121t-281 -121t-115 -299zM469 1866h350l166 -307h-274z" />
<glyph unicode="&#xd3;" horiz-adv-x="1675" d="M72 741q0 317 218 532.5t547.5 215.5t548 -215t218.5 -533q0 -326 -218.5 -546t-548 -220t-547.5 220t-218 546zM442 741q0 -186 115 -312t281 -126t280.5 126t114.5 312q0 178 -114.5 299t-280.5 121t-281 -121t-115 -299zM690 1559l166 307h350l-241 -307h-275z" />
<glyph unicode="&#xd4;" horiz-adv-x="1675" d="M72 741q0 317 218 532.5t547.5 215.5t548 -215t218.5 -533q0 -326 -218.5 -546t-548 -220t-547.5 220t-218 546zM442 741q0 -186 115 -312t281 -126t280.5 126t114.5 312q0 178 -114.5 299t-280.5 121t-281 -121t-115 -299zM463 1559l203 307h344l202 -307h-276l-96 167 h-4l-97 -167h-276z" />
<glyph unicode="&#xd5;" horiz-adv-x="1675" d="M72 741q0 317 218 532.5t547.5 215.5t548 -215t218.5 -533q0 -326 -218.5 -546t-548 -220t-547.5 220t-218 546zM426 1559q0 313 262 313q59 0 106.5 -31t84 -61.5t67.5 -30.5q76 0 76 117h229q0 -313 -262 -314q-59 0 -106 31t-84 61.5t-68 30.5q-76 0 -76 -116h-229z M442 741q0 -186 115 -312t281 -126t280.5 126t114.5 312q0 178 -114.5 299t-280.5 121t-281 -121t-115 -299z" />
<glyph unicode="&#xd6;" horiz-adv-x="1675" d="M72 741q0 317 218 532.5t547.5 215.5t548 -215t218.5 -533q0 -326 -218.5 -546t-548 -220t-547.5 220t-218 546zM442 741q0 -186 115 -312t281 -126t280.5 126t114.5 312q0 178 -114.5 299t-280.5 121t-281 -121t-115 -299zM496 1579v287h258v-287h-258zM924 1579v287 h258v-287h-258z" />
<glyph unicode="&#xd7;" horiz-adv-x="1275" d="M82 188l373 400l-373 401l188 189l367 -394l369 394l188 -189l-375 -401l375 -400l-188 -188l-369 393l-367 -393z" />
<glyph unicode="&#xd8;" horiz-adv-x="1679" d="M74 741q0 317 218 532.5t548 215.5q201 0 360 -82l84 115l143 -97l-81 -112q260 -221 260 -572q0 -326 -218.5 -546t-547.5 -220q-215 0 -389 99l-95 -131l-143 98l98 135q-237 221 -237 565zM444 741q0 -158 80 -270l475 655q-76 35 -159 35q-166 0 -281 -120t-115 -300 zM651 352q88 -49 189 -49q166 0 280.5 125t114.5 313q0 166 -98 281z" />
<glyph unicode="&#xd9;" horiz-adv-x="1527" d="M152 539v925h358v-925q0 -113 68.5 -174.5t185.5 -61.5t185.5 61.5t68.5 174.5v925h358v-925q0 -250 -168 -407t-442 -157q-276 0 -445 157t-169 407zM395 1866h350l166 -307h-274z" />
<glyph unicode="&#xda;" horiz-adv-x="1527" d="M152 539v925h358v-925q0 -113 68.5 -174.5t185.5 -61.5t185.5 61.5t68.5 174.5v925h358v-925q0 -250 -168 -407t-442 -157q-276 0 -445 157t-169 407zM616 1559l166 307h351l-242 -307h-275z" />
<glyph unicode="&#xdb;" horiz-adv-x="1527" d="M152 539v925h358v-925q0 -113 68.5 -174.5t185.5 -61.5t185.5 61.5t68.5 174.5v925h358v-925q0 -250 -168 -407t-442 -157q-276 0 -445 157t-169 407zM389 1559l203 307h344l203 -307h-277l-96 167h-4l-96 -167h-277z" />
<glyph unicode="&#xdc;" horiz-adv-x="1527" d="M152 539v925h358v-925q0 -113 68.5 -174.5t185.5 -61.5t185.5 61.5t68.5 174.5v925h358v-925q0 -250 -168 -407t-442 -157q-276 0 -445 157t-169 407zM422 1579v287h258v-287h-258zM850 1579v287h258v-287h-258z" />
<glyph unicode="&#xdd;" horiz-adv-x="1308" d="M-8 1464h407l166 -352l88 -211h4q41 111 88 211l164 352h408l-483 -864v-600h-359v600zM508 1559l166 307h350l-242 -307h-274z" />
<glyph unicode="&#xde;" horiz-adv-x="1300" d="M172 0v1464h358v-217h250q213 0 345 -141t132 -363q0 -223 -132 -365t-345 -142h-250v-236h-358zM530 543h177q90 0 138 55t48 145.5t-47 143.5t-133 53h-183v-397z" />
<glyph unicode="&#xdf;" horiz-adv-x="1306" d="M131 0v1079q0 193 153.5 301.5t368.5 108.5q193 0 333 -111.5t140 -283.5q0 -70 -36.5 -128.5t-73.5 -106.5t-37 -93q0 -33 43 -73t94 -77.5t94 -110.5t43 -161q0 -172 -114.5 -265t-282.5 -93q-80 0 -143.5 11t-85.5 21l-25 11v290q94 -39 195 -38q102 0 102 86 q0 31 -43 69.5t-95 75.5t-95 102.5t-43 143.5q0 63 36.5 122.5t73.5 110.5t37 94q0 49 -34 79t-93 30q-158 0 -158 -139v-1055h-354z" />
<glyph unicode="&#xe0;" horiz-adv-x="1146" d="M51 315q0 106 69.5 181t179.5 107t196 43t168 11h14v19q0 117 -156 117q-59 0 -129.5 -26t-113.5 -50l-41 -25l-123 250q20 16 58 39t153.5 60.5t230.5 37.5q223 0 349 -114.5t126 -315.5v-649h-323v63l4 66h-4q-4 -6 -10.5 -16.5t-32 -37t-56 -47t-85 -37t-115.5 -16.5 q-152 0 -255.5 93t-103.5 247zM205 1464h350l166 -307h-275zM408 334q0 -39 25.5 -63.5t74.5 -24.5q68 0 121 59.5t53 126.5v23h-33q-96 0 -168.5 -30t-72.5 -91z" />
<glyph unicode="&#xe1;" horiz-adv-x="1146" d="M51 315q0 106 69.5 181t179.5 107t196 43t168 11h14v19q0 117 -156 117q-59 0 -129.5 -26t-113.5 -50l-41 -25l-123 250q20 16 58 39t153.5 60.5t230.5 37.5q223 0 349 -114.5t126 -315.5v-649h-323v63l4 66h-4q-4 -6 -10.5 -16.5t-32 -37t-56 -47t-85 -37t-115.5 -16.5 q-152 0 -255.5 93t-103.5 247zM408 334q0 -39 25.5 -63.5t74.5 -24.5q68 0 121 59.5t53 126.5v23h-33q-96 0 -168.5 -30t-72.5 -91zM424 1157l166 307h350l-242 -307h-274z" />
<glyph unicode="&#xe2;" horiz-adv-x="1146" d="M51 315q0 106 69.5 181t179.5 107t196 43t168 11h14v19q0 117 -156 117q-59 0 -129.5 -26t-113.5 -50l-41 -25l-123 250q20 16 58 39t153.5 60.5t230.5 37.5q223 0 349 -114.5t126 -315.5v-649h-323v63l4 66h-4q-4 -6 -10.5 -16.5t-32 -37t-56 -47t-85 -37t-115.5 -16.5 q-152 0 -255.5 93t-103.5 247zM197 1157l202 307h344l203 -307h-276l-97 168h-4l-96 -168h-276zM408 334q0 -39 25.5 -63.5t74.5 -24.5q68 0 121 59.5t53 126.5v23h-33q-96 0 -168.5 -30t-72.5 -91z" />
<glyph unicode="&#xe3;" horiz-adv-x="1146" d="M51 315q0 106 69.5 181t179.5 107t196 43t168 11h14v19q0 117 -156 117q-59 0 -129.5 -26t-113.5 -50l-41 -25l-123 250q20 16 58 39t153.5 60.5t230.5 37.5q223 0 349 -114.5t126 -315.5v-649h-323v63l4 66h-4q-4 -6 -10.5 -16.5t-32 -37t-56 -47t-85 -37t-115.5 -16.5 q-152 0 -255.5 93t-103.5 247zM160 1157q0 313 262 313q59 0 106 -30.5t84 -61t68 -30.5q76 0 76 116h229q0 -313 -262 -313q-59 0 -106.5 30.5t-84 61.5t-67.5 31q-76 0 -76 -117h-229zM408 334q0 -39 25.5 -63.5t74.5 -24.5q68 0 121 59.5t53 126.5v23h-33 q-96 0 -168.5 -30t-72.5 -91z" />
<glyph unicode="&#xe4;" horiz-adv-x="1146" d="M51 315q0 106 69.5 181t179.5 107t196 43t168 11h14v19q0 117 -156 117q-59 0 -129.5 -26t-113.5 -50l-41 -25l-123 250q20 16 58 39t153.5 60.5t230.5 37.5q223 0 349 -114.5t126 -315.5v-649h-323v63l4 66h-4q-4 -6 -10.5 -16.5t-32 -37t-56 -47t-85 -37t-115.5 -16.5 q-152 0 -255.5 93t-103.5 247zM229 1178v286h258v-286h-258zM408 334q0 -39 25.5 -63.5t74.5 -24.5q68 0 121 59.5t53 126.5v23h-33q-96 0 -168.5 -30t-72.5 -91zM657 1178v286h258v-286h-258z" />
<glyph unicode="&#xe5;" horiz-adv-x="1146" d="M51 315q0 106 69.5 181t179.5 107t196 43t168 11h14v19q0 117 -156 117q-59 0 -129.5 -26t-113.5 -50l-41 -25l-123 250q20 16 58 39t153.5 60.5t230.5 37.5q223 0 349 -114.5t126 -315.5v-649h-323v63l4 66h-4q-4 -6 -10.5 -16.5t-32 -37t-56 -47t-85 -37t-115.5 -16.5 q-152 0 -255.5 93t-103.5 247zM348 1302.5q0 83.5 66.5 130t157 46.5t158 -46.5t67.5 -130t-67.5 -129t-158 -45.5t-157 45.5t-66.5 129zM408 334q0 -39 25.5 -63.5t74.5 -24.5q68 0 121 59.5t53 126.5v23h-33q-96 0 -168.5 -30t-72.5 -91zM502 1302.5q0 -32.5 18.5 -52 t51 -19.5t52 19.5t19.5 52t-19.5 53t-52.5 20.5q-31 0 -50 -20.5t-19 -53z" />
<glyph unicode="&#xe6;" horiz-adv-x="1751" d="M53 315q0 90 49.5 157t118 101.5t161.5 56t158.5 27t131.5 5.5h8v14q0 117 -156 117q-131 -2 -286 -101l-123 248q20 16 56 38.5t150.5 61.5t229.5 39q217 0 334 -104h4q127 104 315 104q221 0 354.5 -146.5t133.5 -373.5l-9 -100h-665q18 -94 87 -141.5t159 -47.5 q68 0 140.5 27t111.5 51l38 27l132 -246q-18 -16 -54.5 -42t-154 -69t-242.5 -43q-272 0 -424 185h-4q-33 -59 -133.5 -121t-261.5 -62q-152 0 -255.5 93t-103.5 245zM410 334q0 -88 104 -88q70 0 121 60.5t51 127.5v25h-35q-94 0 -167.5 -33t-73.5 -92zM1026 662h309 q0 59 -36.5 105t-94.5 46q-139 1 -178 -151z" />
<glyph unicode="&#xe7;" horiz-adv-x="1132" d="M57 528q0 225 159 388t429 163q80 0 152.5 -16t120 -40t82 -47.5t49.5 -39.5l16 -16l-150 -238q-12 12 -32.5 28.5t-85 45t-129.5 28.5q-119 0 -185.5 -74.5t-66.5 -177.5q0 -104 69.5 -183t194.5 -79q66 0 137.5 32t112.5 63l39 32l129 -247q-6 -6 -17.5 -16.5 t-50.5 -39t-83 -50t-113.5 -42t-143.5 -25.5l-12 -51q154 -16 153 -164q0 -102 -69.5 -147t-169.5 -45q-35 0 -71 4t-54 8l-21 6v179q47 -20 93 -21q78 0 77 47q0 43 -84 43l-53 -4l47 154q-219 35 -344 187t-125 355z" />
<glyph unicode="&#xe8;" horiz-adv-x="1153" d="M55 528q0 238 149.5 394.5t399.5 156.5q227 0 357.5 -142t130.5 -368l-9 -110h-665q18 -92 86.5 -140.5t159.5 -48.5q68 0 140.5 27t110.5 53l39 27l131 -248q-18 -16 -54 -42t-153.5 -69t-242.5 -43q-268 0 -424 164t-156 389zM229 1464h351l165 -307h-274zM426 662h309 q0 61 -39 106t-100 45q-133 1 -170 -151z" />
<glyph unicode="&#xe9;" horiz-adv-x="1153" d="M55 528q0 238 149.5 394.5t399.5 156.5q227 0 357.5 -142t130.5 -368l-9 -110h-665q18 -92 86.5 -140.5t159.5 -48.5q68 0 140.5 27t110.5 53l39 27l131 -248q-18 -16 -54 -42t-153.5 -69t-242.5 -43q-268 0 -424 164t-156 389zM426 662h309q0 61 -39 106t-100 45 q-133 1 -170 -151zM449 1157l165 307h351l-242 -307h-274z" />
<glyph unicode="&#xea;" horiz-adv-x="1153" d="M55 528q0 238 149.5 394.5t399.5 156.5q227 0 357.5 -142t130.5 -368l-9 -110h-665q18 -92 86.5 -140.5t159.5 -48.5q68 0 140.5 27t110.5 53l39 27l131 -248q-18 -16 -54 -42t-153.5 -69t-242.5 -43q-268 0 -424 164t-156 389zM221 1157l203 307h344l203 -307h-277 l-96 168h-4l-96 -168h-277zM426 662h309q0 61 -39 106t-100 45q-133 1 -170 -151z" />
<glyph unicode="&#xeb;" horiz-adv-x="1153" d="M55 528q0 238 149.5 394.5t399.5 156.5q227 0 357.5 -142t130.5 -368l-9 -110h-665q18 -92 86.5 -140.5t159.5 -48.5q68 0 140.5 27t110.5 53l39 27l131 -248q-18 -16 -54 -42t-153.5 -69t-242.5 -43q-268 0 -424 164t-156 389zM254 1178v286h258v-286h-258zM426 662h309 q0 61 -39 106t-100 45q-133 1 -170 -151zM682 1178v286h258v-286h-258z" />
<glyph unicode="&#xec;" horiz-adv-x="616" d="M-61 1464h350l166 -307h-275zM131 0v1055h354v-1055h-354z" />
<glyph unicode="&#xed;" horiz-adv-x="616" d="M131 0v1055h354v-1055h-354zM160 1157l166 307h350l-242 -307h-274z" />
<glyph unicode="&#xee;" horiz-adv-x="616" d="M-68 1157l203 307h344l203 -307h-276l-97 168h-4l-96 -168h-277zM131 0v1055h354v-1055h-354z" />
<glyph unicode="&#xef;" horiz-adv-x="616" d="M-35 1178v286h258v-286h-258zM131 0v1055h354v-1055h-354zM393 1178v286h258v-286h-258z" />
<glyph unicode="&#xf0;" horiz-adv-x="1220" d="M61 494q0 186 130.5 321t343.5 135l141 -18h4q-51 76 -143 129l-394 -162v195l189 80q-106 45 -195 61l99 276q270 -57 475 -182l329 137v-194l-166 -70q260 -250 261 -622q0 -88 -17.5 -171t-59.5 -163t-103.5 -139.5t-158 -95.5t-214.5 -36q-238 0 -379.5 154 t-141.5 365zM418 483q0 -90 41 -151.5t129 -61.5q98 0 144 71t46 171q0 76 -45 122t-125 46q-92 0 -141 -56.5t-49 -140.5z" />
<glyph unicode="&#xf1;" d="M131 0v1055h340v-92l-4 -66h4q109 182 336 182q379 0 379 -395v-684h-355v618q0 139 -116 140q-158 0 -209 -152q-20 -59 -21 -139v-467h-354zM254 1157q0 313 262 313q59 0 106.5 -30.5t84 -61t67.5 -30.5q76 0 76 116h229q0 -313 -262 -313q-59 0 -106 30.5t-84 61.5 t-68 31q-76 0 -76 -117h-229z" />
<glyph unicode="&#xf2;" d="M53 524.5q0 243.5 172 399t424 155.5q254 0 427 -154.5t173 -400.5q0 -244 -172 -396.5t-426 -152.5t-426 153t-172 396.5zM283 1464h350l166 -307h-275zM412 524q0 -115 69.5 -184.5t170 -69.5t170 70t69.5 184q0 117 -69.5 188.5t-170 71.5t-170 -71.5t-69.5 -188.5z " />
<glyph unicode="&#xf3;" d="M53 524.5q0 243.5 172 399t424 155.5q254 0 427 -154.5t173 -400.5q0 -244 -172 -396.5t-426 -152.5t-426 153t-172 396.5zM412 524q0 -115 69.5 -184.5t170 -69.5t170 70t69.5 184q0 117 -69.5 188.5t-170 71.5t-170 -71.5t-69.5 -188.5zM504 1157l166 307h350 l-242 -307h-274z" />
<glyph unicode="&#xf4;" d="M53 524.5q0 243.5 172 399t424 155.5q254 0 427 -154.5t173 -400.5q0 -244 -172 -396.5t-426 -152.5t-426 153t-172 396.5zM276 1157l203 307h344l203 -307h-276l-97 168h-4l-96 -168h-277zM412 524q0 -115 69.5 -184.5t170 -69.5t170 70t69.5 184q0 117 -69.5 188.5 t-170 71.5t-170 -71.5t-69.5 -188.5z" />
<glyph unicode="&#xf5;" d="M53 524.5q0 243.5 172 399t424 155.5q254 0 427 -154.5t173 -400.5q0 -244 -172 -396.5t-426 -152.5t-426 153t-172 396.5zM240 1157q0 313 262 313q59 0 106 -30.5t84 -61t68 -30.5q76 0 76 116h229q0 -313 -262 -313q-59 0 -106.5 30.5t-84.5 61.5t-67 31 q-76 0 -76 -117h-229zM412 524q0 -115 69.5 -184.5t170 -69.5t170 70t69.5 184q0 117 -69.5 188.5t-170 71.5t-170 -71.5t-69.5 -188.5z" />
<glyph unicode="&#xf6;" d="M53 524.5q0 243.5 172 399t424 155.5q254 0 427 -154.5t173 -400.5q0 -244 -172 -396.5t-426 -152.5t-426 153t-172 396.5zM309 1178v286h258v-286h-258zM412 524q0 -115 69.5 -184.5t170 -69.5t170 70t69.5 184q0 117 -69.5 188.5t-170 71.5t-170 -71.5t-69.5 -188.5z M737 1178v286h258v-286h-258z" />
<glyph unicode="&#xf7;" horiz-adv-x="1458" d="M170 455v266h1118v-266h-1118zM580 0v276h299v-276h-299zM580 901v277h299v-277h-299z" />
<glyph unicode="&#xf8;" horiz-adv-x="1300" d="M51 524q0 244 172 399.5t424 155.5q143 0 268 -53l86 119l136 -92l-82 -113q193 -160 192 -416q0 -244 -172 -396.5t-426 -152.5q-137 0 -254 48l-90 -125l-135 94l80 112q-199 156 -199 420zM410 524q0 -84 39 -145l282 391q-47 14 -82 14q-100 0 -169.5 -71.5 t-69.5 -188.5zM580 279q31 -8 69 -9q100 0 170 70t70 184q0 76 -33 138z" />
<glyph unicode="&#xf9;" horiz-adv-x="1292" d="M117 371v684h354v-619q0 -139 113 -139q109 0 166 83t57 208v467h354v-1055h-340v92l4 66h-4q-43 -84 -133 -133.5t-196 -49.5q-172 0 -273.5 93.5t-101.5 302.5zM270 1464h351l165 -307h-274z" />
<glyph unicode="&#xfa;" horiz-adv-x="1292" d="M117 371v684h354v-619q0 -139 113 -139q109 0 166 83t57 208v467h354v-1055h-340v92l4 66h-4q-43 -84 -133 -133.5t-196 -49.5q-172 0 -273.5 93.5t-101.5 302.5zM492 1157l165 307h351l-242 -307h-274z" />
<glyph unicode="&#xfb;" horiz-adv-x="1292" d="M117 371v684h354v-619q0 -139 113 -139q109 0 166 83t57 208v467h354v-1055h-340v92l4 66h-4q-43 -84 -133 -133.5t-196 -49.5q-172 0 -273.5 93.5t-101.5 302.5zM264 1157l203 307h344l203 -307h-277l-96 168h-4l-96 -168h-277z" />
<glyph unicode="&#xfc;" horiz-adv-x="1292" d="M117 371v684h354v-619q0 -139 113 -139q109 0 166 83t57 208v467h354v-1055h-340v92l4 66h-4q-43 -84 -133 -133.5t-196 -49.5q-172 0 -273.5 93.5t-101.5 302.5zM297 1178v286h258v-286h-258zM725 1178v286h258v-286h-258z" />
<glyph unicode="&#xfd;" horiz-adv-x="1118" d="M-35 1055h402l155 -486l39 -163h4q20 100 35 157l133 492h387l-432 -1168q-61 -164 -181 -240.5t-259 -76.5q-137 0 -246 74l113 260q57 -39 108 -39q127 0 170 106l21 49zM416 1155l166 307h350l-242 -307h-274z" />
<glyph unicode="&#xfe;" horiz-adv-x="1300" d="M131 -410v1874h354v-403l-4 -90h4q98 109 275 108q215 0 349 -156.5t134 -394t-134 -395.5t-349 -158q-88 0 -156.5 25t-93.5 49l-25 25h-4q4 -37 4 -90v-394h-354zM475 526q0 -256 213 -256q90 0 144.5 75t54.5 183.5t-54.5 182t-144.5 73.5q-213 0 -213 -258z" />
<glyph unicode="&#xff;" horiz-adv-x="1118" d="M-35 1055h402l155 -486l39 -163h4q20 100 35 157l133 492h387l-432 -1168q-61 -164 -181 -240.5t-259 -76.5q-137 0 -246 74l113 260q57 -39 108 -39q127 0 170 106l21 49zM221 1176v286h258v-286h-258zM649 1176v286h258v-286h-258z" />
<glyph unicode="&#x152;" horiz-adv-x="2031" d="M66 735.5q0 313.5 230 529.5t556 216q76 0 153.5 -8.5t116.5 -8.5h795v-307h-559v-266h446v-307h-446v-277h590v-307h-826q-39 0 -116.5 -8t-153.5 -8q-326 0 -556 219t-230 532.5zM436 735.5q0 -184.5 121 -315.5t295 -131q41 0 78 3t53 7l16 4v858q-57 14 -147 15 q-174 0 -295 -128t-121 -312.5z" />
<glyph unicode="&#x153;" horiz-adv-x="1986" d="M53 524.5q0 243.5 168 399t416 155.5q139 0 232.5 -42t174.5 -122h5q72 80 159.5 122t229.5 42q227 0 357 -142t130 -368l-8 -110h-664q18 -88 87 -138.5t157 -50.5q68 0 140.5 27t111.5 53l39 27l131 -248q-18 -16 -54 -42t-154 -69t-243 -43q-150 0 -242.5 45.5 t-168.5 129.5h-4q-82 -84 -177.5 -129.5t-236.5 -45.5q-250 0 -418 153t-168 396.5zM410 524q0 -115 69.5 -184.5t170 -69.5t170 70t69.5 184q0 117 -69.5 188.5t-170 71.5t-170 -71.5t-69.5 -188.5zM1260 662h309q-2 59 -39 105t-96 46q-137 1 -174 -151z" />
<glyph unicode="&#x178;" horiz-adv-x="1308" d="M-8 1464h407l166 -352l88 -211h4q41 111 88 211l164 352h408l-483 -864v-600h-359v600zM313 1579v287h258v-287h-258zM741 1579v287h258v-287h-258z" />
<glyph unicode="&#x2c6;" horiz-adv-x="995" d="M123 1559l203 307h344l202 -307h-276l-96 167h-4l-97 -167h-276z" />
<glyph unicode="&#x2dc;" horiz-adv-x="993" d="M84 1559q0 313 262 313q59 0 106.5 -31t84 -61.5t67.5 -30.5q76 0 76 117h229q0 -313 -262 -314q-59 0 -106 31t-84 61.5t-68 30.5q-76 0 -76 -116h-229z" />
<glyph unicode="&#x2000;" horiz-adv-x="940" />
<glyph unicode="&#x2001;" horiz-adv-x="1880" />
<glyph unicode="&#x2002;" horiz-adv-x="940" />
<glyph unicode="&#x2003;" horiz-adv-x="1880" />
<glyph unicode="&#x2004;" horiz-adv-x="626" />
<glyph unicode="&#x2005;" horiz-adv-x="468" />
<glyph unicode="&#x2006;" horiz-adv-x="313" />
<glyph unicode="&#x2007;" horiz-adv-x="313" />
<glyph unicode="&#x2008;" horiz-adv-x="233" />
<glyph unicode="&#x2009;" horiz-adv-x="374" />
<glyph unicode="&#x200a;" horiz-adv-x="104" />
<glyph unicode="&#x2010;" horiz-adv-x="917" d="M137 434v307h643v-307h-643z" />
<glyph unicode="&#x2011;" horiz-adv-x="917" d="M137 434v307h643v-307h-643z" />
<glyph unicode="&#x2012;" horiz-adv-x="917" d="M137 434v307h643v-307h-643z" />
<glyph unicode="&#x2013;" horiz-adv-x="1495" d="M137 455v266h1221v-266h-1221z" />
<glyph unicode="&#x2014;" horiz-adv-x="1904" d="M137 455v266h1630v-266h-1630z" />
<glyph unicode="&#x2018;" horiz-adv-x="530" d="M61 973l183 522h239l-110 -522h-312z" />
<glyph unicode="&#x2019;" horiz-adv-x="516" d="M72 973l110 522h312l-183 -522h-239z" />
<glyph unicode="&#x201a;" horiz-adv-x="544" d="M43 -182l111 522h301l-183 -522h-229z" />
<glyph unicode="&#x201c;" horiz-adv-x="937" d="M61 973l183 522h241l-110 -522h-314zM467 973l182 522h242l-111 -522h-313z" />
<glyph unicode="&#x201d;" horiz-adv-x="923" d="M72 973l110 522h314l-183 -522h-241zM477 973l111 522h313l-182 -522h-242z" />
<glyph unicode="&#x201e;" horiz-adv-x="937" d="M43 -182l111 522h301l-183 -522h-229zM436 -182l111 522h301l-182 -522h-230z" />
<glyph unicode="&#x2022;" horiz-adv-x="954" d="M96 596q0 158 111.5 269.5t269.5 111.5t269.5 -111.5t111.5 -269.5t-111.5 -269.5t-269.5 -111.5t-269.5 111.5t-111.5 269.5z" />
<glyph unicode="&#x2026;" horiz-adv-x="1888" d="M119 0v336h323v-336h-323zM782 0v336h324v-336h-324zM1446 0v336h323v-336h-323z" />
<glyph unicode="&#x202f;" horiz-adv-x="374" />
<glyph unicode="&#x2039;" horiz-adv-x="784" d="M57 578l336 421h324l-336 -421l336 -420h-324z" />
<glyph unicode="&#x203a;" horiz-adv-x="784" d="M68 158l335 420l-335 421h323l336 -421l-336 -420h-323z" />
<glyph unicode="&#x205f;" horiz-adv-x="468" />
<glyph unicode="&#x20ac;" horiz-adv-x="1222" d="M55 485v197h115q-6 53 -2 98h-113v197h148q72 227 265.5 369.5t444.5 142.5q55 0 114.5 -7t92.5 -16l33 -6l-88 -323q-80 20 -162 20q-219 0 -315 -180h442l-41 -197h-448q-6 -45 4 -98h424l-41 -197h-318q49 -82 131 -127t179 -45q45 0 94 7.5t76 15.5l24 8l62 -328 q-113 -41 -263 -41q-260 0 -447 139.5t-259 370.5h-152z" />
<glyph unicode="&#x2122;" horiz-adv-x="1980" d="M33 1241v223h835v-223h-286v-692h-258v692h-291zM907 549l72 915h242l149 -358l27 -90h4q14 59 26 90l150 358h242l67 -915h-260l-20 356l2 66h-4l-105 -256h-201l-104 256h-4l2 -66l-25 -356h-260z" />
<glyph unicode="&#xe000;" horiz-adv-x="1055" d="M0 1055h1055v-1055h-1055v1055z" />
<glyph unicode="&#xfb01;" horiz-adv-x="1402" d="M68 778v277h129v24q0 98 34.5 173t85 116t121 65.5t127 32t115.5 7.5l106 -7v-299q-25 4 -57 4q-178 0 -178 -102v-14h721v-1055h-354v778h-367v-778h-354v778h-129zM922 1188v276h346v-276h-346z" />
<glyph unicode="&#xfb02;" horiz-adv-x="1447" d="M68 760v276h129v43q0 98 34.5 173t85 116t121 65.5t127 32t115.5 7.5l106 -7v-299q-25 4 -57 4q-178 0 -178 -102v-33h194v-276h-194v-760h-354v760h-129zM903 389v1075h354v-1028q0 -78 19.5 -106.5t79.5 -28.5l43 2v-307q-49 -6 -107 -6q-82 0 -142 13t-120.5 52 t-93.5 123t-33 211z" />
<glyph unicode="&#xfb03;" horiz-adv-x="2189" d="M68 778v277h129v24q0 98 34.5 173t85 116t121 65.5t127 32t115.5 7.5l106 -7v-299q-25 4 -57 4q-178 0 -178 -102v-14h432v24q0 98 35 173t85 116t120.5 65.5t127 32t115.5 7.5l107 -7v-299q-25 4 -57 4q-178 0 -179 -102v-14h721v-1055h-354v778h-367v-778h-354v778 h-432v-778h-354v778h-129zM1708 1188v276h346v-276h-346z" />
<glyph unicode="&#xfb04;" horiz-adv-x="2234" d="M68 778v277h129v24q0 98 34.5 173t85 116t121 65.5t127 32t115.5 7.5l106 -7v-299q-25 4 -57 4q-178 0 -178 -102v-14h432v24q0 98 35 173t85 116t120.5 65.5t127 32t115.5 7.5l107 -7v-299q-25 4 -57 4q-178 0 -179 -102v-14h195v-277h-195v-778h-354v778h-432v-778 h-354v778h-129zM1690 389v1075h354v-1028q0 -78 19.5 -106.5t78.5 -28.5l43 2v-307q-49 -6 -106 -6q-82 0 -142.5 13t-121 52t-93 123t-32.5 211z" />
</font>
</defs>
</svg>
